<svg version="1" xmlns="http://www.w3.org/2000/svg" width="300" height="300" viewBox="0 0 225.000000 225.000000"><path d="M0 112.5V225h225V0H0v112.5zM131.7 33c24.5 5.9 44.2 21.9 55.1 44.8 12.6 26.6 10.3 56.7-6.3 81.7-7.7 11.6-21.7 23.2-35.2 29.1-14.7 6.5-35.8 8.3-52 4.4-24.3-5.8-44-21.7-55-44.5-10.8-22.4-10.9-48-.1-70.7 10.6-22.2 31-39 54.3-44.7 11.1-2.7 28.2-2.8 39.2-.1z"/><path d="M93.9 36c-28.3 7-50.5 28.7-58.1 56.9-2.9 10.8-2.9 29.6 0 40.2 9.5 35.1 40.5 58.9 76.7 58.9 39 0 71.3-27.4 78.1-66.1 6.1-35.1-13.3-70.9-46.4-85.6-14.3-6.3-34.9-8.1-50.3-4.3zm31.4 2.9c2.1.5 4.2 1.2 4.5 1.6.4.3.8 5.7 1 11.8.2 6.2.5 11.8.7 12.4.3.9 2.8 1.3 8.1 1.3 6.5 0 7.8.3 9.3 2.1 1.7 2.1 1.8 2 5-6.5 2.9-7.8 3.4-8.5 5.2-7.6 1 .6 1.9 1.4 1.9 1.8 0 1.3-8.5 25.2-9 25.2-.3 0-2-2.3-3.8-5.1l-3.3-5-7.2.3c-6.8.3-7.2.4-7.5 2.8-.4 3.3-2.8 5-6.9 5-3.2 0-3.3.1-3.3 4 0 3.6-.2 4-2.5 4-2.4 0-2.5.2-2.5 6.5s-.1 6.5-2.5 6.5-2.5-.2-2.5-6.5-.1-6.5-2.5-6.5c-2.2 0-2.5-.4-2.5-4 0-3.9-.1-4-3.3-4-5.5 0-6.6-1.6-6.9-10l-.3-7.5-9.6-.3-9.7-.3L71 71.2c-2.4 5.7-4.6 10.6-4.9 11-.4.4-2.4-4-4.4-9.9C58 61.8 58 61.6 59.9 59.7c1.8-1.9 1.9-1.8 3.6 3.2.9 2.8 2 5.1 2.4 5.1.3 0 2-3 3.5-6.6l2.9-6.6 11.1.3 11.1.4.3-7.7c.3-7.5.4-7.8 3-8.4 1.5-.3 3.2-.7 3.7-.9 2.2-.7 20.2-.4 23.8.4zM172 68c0 .5-1.1 1-2.4 1-2 0-2.7-.8-4-4.7-.9-2.6-1.6-4.9-1.6-5.2.1-1 8 7.8 8 8.9zM47.8 105.3L48 126h-5v-20.3c0-11.2.3-20.7.7-21.1.4-.4 1.4-.5 2.3-.4 1.3.3 1.5 3.3 1.8 21.1zm29.1-2.7c1.2 1.5 2.1 3.7 2.1 4.9 0 1.2-.9 3.4-2.1 4.9-1.9 2.4-2.5 2.6-10.7 2.6-7.4 0-8.9-.3-10.9-2.2-3-2.8-3-7.4-.1-10.5 1.9-2.1 3-2.3 10.9-2.3 8.3 0 8.9.1 10.8 2.6zm94.2 4.7c5.4 2.9 9.9 9 10.6 14.5l.6 4.2H83l-1.4-3.4c-.8-1.8-1.9-3.6-2.4-4-.7-.4-.2-2 1.3-4.3 1.4-2 2.5-4.1 2.5-4.7 0-.6 1.7-1.8 3.8-2.8 3.2-1.4 8.7-1.6 41.8-1.7 38-.1 38.1-.1 42.5 2.2zm-95.3 14.3c1.2.8 2.2 2.2 2.2 3 0 1.1-2.2 1.4-12 1.4s-12-.3-12-1.4c0-3 4.2-4.6 12-4.6 5.2 0 8.2.5 9.8 1.6zm108.8 11c-.3.9-.6 2-.6 2.5s-28.7.9-71.5.9-71.5-.4-71.5-.9-.3-1.6-.6-2.5c-.6-1.5 6.2-1.6 72.1-1.6 65.9 0 72.7.1 72.1 1.6zM56 150.5c0 5.2-.3 9.5-.7 9.5-.5 0-1.8-1.5-3-3.3-1.8-2.6-2.3-4.7-2.3-9.5V141h6v9.5zm118-2.3c-.1 6.2-.4 7.7-2.5 10.3l-2.5 3V141h2.5c2.4 0 2.5.2 2.5 7.2z"/><path d="M110 50.5c0 2-.5 2.5-2.5 2.5-2.1 0-2.5.5-2.5 3s.4 3 2.5 3c2 0 2.5.5 2.5 2.5s.5 2.5 2.5 2.5 2.5-.5 2.5-2.5.5-2.5 2.5-2.5c2.1 0 2.5-.5 2.5-3s-.4-3-2.5-3c-2 0-2.5-.5-2.5-2.5s-.5-2.5-2.5-2.5-2.5.5-2.5 2.5z"/></svg>