<svg xmlns="http://www.w3.org/2000/svg" xmlns:svg="http://www.w3.org/2000/svg" id="svg12" fill="currentColor" stroke="currentColor" stroke-linecap="round" stroke-linejoin="round" stroke-width="50" class="icon icon-tabler icon-tabler-tag" version="1.1" viewBox="0 0 24 24"><metadata id="metadata18"/><g id="g10" transform="matrix(0.02330323,0,0,0.02330323,0.61405975,0.35311013)" style="stroke-width:36.04650514;stroke-miterlimit:4;stroke-dasharray:none"><path id="path4" d="M 94.127101,787.58932 V 196.67295 125.38932 c 0,-29.199997 23.699999,-52.999997 52.999999,-52.999997 h 556.2 c 29.2,0 53,23.7 53,52.999997 v 317.8 h 53 l -1.14613,-199.03417 1.14613,-118.66583 c 0.56596,-58.597264 -47.4,-105.999997 -105.9,-105.999997 h -556.4 c -58.499999,0 -105.899999,47.4 -105.899999,105.999997 v 662.2 c 0,58.5 47.4,105.9 105.899999,105.9 h 370.8 v -52.9 h -370.8 c -29.2,-0.1 -52.899999,-23.8 -52.899999,-53.1 z" style="stroke-width:6.00775086;stroke-miterlimit:4;stroke-dasharray:none;fill-opacity:1"/><path id="path6" d="m 462.9271,200.08932 c -4.1,-10.4 -12.4,-17.9 -22.1,-21.7 0,-0.1 0,-0.1 -0.1,-0.1 -0.2,-0.1 -0.4,-0.1 -0.6,-0.1 -4.6,-1.7 -9.5,-2.6 -14.6,-2.6 -1.1,0 -2.2,0.5 -3.3,0.6 -3.6,0.4 -7.2,0.5 -10.7,1.9 -2.9,1.1 -4.9,2.7 -6.4,4.3 -6.8,4.3 -12.7,10.2 -15.9,18.3 l -187.1,427.7 c -1.8,4.7 -3.7,9.3 -5.1,13.7 l 27.94833,13.8283 19.95167,9.8717 c 1.6,-2.5 3.4,-4.8 4.7,-8.1 l 35.8,-81.9 h 232.5 53.1 c 3.2,0 26.9,1 29.7,0 h -19.8 60.7 z m -154.4,322.6 118.4,-270.6 128.7,270.6 z" style="stroke-width:23.1728;stroke-miterlimit:4;stroke-dasharray:none"/><path id="path8" d="m 941.6271,655.18932 h -132.4 v -132.5 c 0,-14.6 -11.9,-26.5 -26.5,-26.5 -14.6,0 -26.5,11.8 -26.5,26.5 v 132.4 h -132.4 c -14.6,0 -26.5,11.8 -26.5,26.5 v 158.9 c 0,14.6 11.8,26.5 26.5,26.5 h 132.4 v 105.9 c 0,14.6 11.8,26.5 26.5,26.5 14.6,0 26.5,-11.8 26.5,-26.5 v -105.8 h 132.4 c 14.6,0 26.5,-11.8 26.5,-26.5 v -158.9 c 0,-14.7 -11.8,-26.5 -26.5,-26.5 z m -185.4,158.9 h -79.5 c -14.6,0 -26.5,-11.8 -26.5,-26.5 v -53 c 0,-14.6 11.8,-26.5 26.5,-26.5 h 79.5 z m 158.9,-26.5 c 0,14.6 -11.8,26.5 -26.5,26.5 h -79.5 v -106 h 79.5 c 14.6,0 26.5,11.8 26.5,26.5 z" style="stroke-width:10.29900147;stroke-miterlimit:4;stroke-dasharray:none"/></g></svg>